<?xml version="1.0" encoding="iso-8859-1"?>
<!-- Generator: Adobe Illustrator 19.0.0, SVG Export Plug-In . SVG Version: 6.00 Build 0)  -->
<svg version="1.1" id="Layer_1" xmlns="http://www.w3.org/2000/svg" xmlns:xlink="http://www.w3.org/1999/xlink" x="0px" y="0px"
	 viewBox="0 0 512.001 512.001" style="enable-background:new 0 0 512.001 512.001;" xml:space="preserve">
<path style="fill:#DBD9DA;" d="M493.93,97.13H97.316v79.246c0,9.98-8.092,18.068-18.07,18.068H0v202.355
	c0,9.98,8.091,18.071,18.07,18.071h73.074h28.939h373.846c9.98,0,18.07-8.093,18.07-18.071V115.201
	C512,105.22,503.908,97.13,493.93,97.13z"/>
<path style="fill:#EDEDED;" d="M493.93,97.13H204.904c-3.671,18-5.6,36.632-5.6,55.718c0,121.24,77.788,224.296,186.173,262.024
	h108.454c9.98,0,18.07-8.093,18.07-18.071V115.201C512,105.22,503.908,97.13,493.93,97.13z"/>
<g>
	<path style="fill:#B2AFB1;" d="M115.124,176.376V97.13H97.316v79.246c0,9.98-8.092,18.068-18.07,18.068h17.809
		C107.032,194.444,115.124,186.356,115.124,176.376z"/>
	<path style="fill:#B2AFB1;" d="M17.809,396.799V194.444H0v202.355c0,9.98,8.091,18.071,18.07,18.071h17.809
		C25.901,414.87,17.809,406.778,17.809,396.799z"/>
</g>
<path style="fill:#FF3B3B;" d="M293.182,165.702c-3.848-4.013-9.03-6.223-14.592-6.223c-5.242,0-10.213,2-13.998,5.632l-8.59,8.245
	l-8.596-8.247c-3.784-3.631-8.756-5.631-14-5.631c-5.561,0-10.743,2.208-14.59,6.22c-7.719,8.042-7.454,20.865,0.588,28.59
	l31.202,29.945c1.507,1.447,3.45,2.169,5.395,2.169s3.888-0.723,5.396-2.17l31.196-29.946c3.898-3.74,6.104-8.774,6.215-14.171
	C298.92,174.715,296.922,169.596,293.182,165.702z"/>
<path style="fill:#E52323;" d="M268.415,216.535l-31.202-29.945c-7.536-7.239-8.241-18.958-1.946-27.02
	c-0.616-0.057-1.235-0.089-1.861-0.089c-5.561,0-10.743,2.208-14.59,6.22c-7.719,8.042-7.454,20.865,0.588,28.59l31.202,29.945
	c1.507,1.447,3.45,2.169,5.395,2.169c1.944,0,3.888-0.723,5.396-2.17l7.543-7.241C268.761,216.846,268.584,216.696,268.415,216.535z
	"/>
<g>
	<path style="fill:#49516D;" d="M97.316,176.376V97.13L0,194.444h79.244C89.224,194.444,97.316,186.356,97.316,176.376z"/>
	<path style="fill:#49516D;" d="M451.764,161.194h-49.693c-4.61,0-8.348-3.736-8.348-8.348s3.738-8.348,8.348-8.348h49.693
		c4.61,0,8.348,3.736,8.348,8.348S456.373,161.194,451.764,161.194z"/>
	<path style="fill:#49516D;" d="M426.919,287.691H79.812c-4.61,0-8.348-3.736-8.348-8.348c0-4.611,3.738-8.348,8.348-8.348h347.107
		c4.61,0,8.348,3.736,8.348,8.348C435.267,283.953,431.528,287.691,426.919,287.691z"/>
	<path style="fill:#49516D;" d="M426.919,340.395H79.812c-4.61,0-8.348-3.736-8.348-8.348s3.738-8.348,8.348-8.348h347.107
		c4.61,0,8.348,3.736,8.348,8.348S431.528,340.395,426.919,340.395z"/>
</g>
<g>
</g>
<g>
</g>
<g>
</g>
<g>
</g>
<g>
</g>
<g>
</g>
<g>
</g>
<g>
</g>
<g>
</g>
<g>
</g>
<g>
</g>
<g>
</g>
<g>
</g>
<g>
</g>
<g>
</g>
</svg>
