<?xml version="1.0" encoding="iso-8859-1"?>
<!-- Generator: Adobe Illustrator 19.0.0, SVG Export Plug-In . SVG Version: 6.00 Build 0)  -->
<svg version="1.1" id="Layer_1" xmlns="http://www.w3.org/2000/svg" xmlns:xlink="http://www.w3.org/1999/xlink" x="0px" y="0px"
	 viewBox="0 0 512 512" style="enable-background:new 0 0 512 512;" xml:space="preserve">
<circle style="fill:#273B7A;" cx="256" cy="256" r="256"/>
<path style="fill:#121149;" d="M268.726,511.684c107.939-5.285,198.294-77.422,230.571-175.88L374.055,210.563l-30.18,7.332
	l-75.673-75.673l-21.88,24.619L106.02,303.075l29.594,29.594l-29.594,16.308L268.726,511.684z"/>
<circle style="fill:#E09112;" cx="256" cy="153.1" r="16.362"/>
<path style="fill:#FF5419;" d="M256,136.733c-0.388,0-0.767,0.031-1.148,0.059V169.4c0.381,0.026,0.76,0.059,1.148,0.059
	c9.037,0,16.362-7.325,16.362-16.362C272.362,144.058,265.037,136.733,256,136.733z"/>
<polygon style="fill:#E09112;" points="270.998,318.981 270.998,278.987 241.002,278.987 241.002,318.981 106.02,318.981 
	106.02,348.977 405.98,348.977 405.98,318.981 "/>
<polygon style="fill:#FF5419;" points="405.98,318.981 270.998,318.981 270.998,278.987 254.852,278.987 254.852,348.977 
	405.98,348.977 "/>
<path style="fill:#FFC61B;" d="M106.02,303.075c0-82.832,67.148-149.98,149.98-149.98s149.98,67.148,149.98,149.98H106.02z"/>
<path style="fill:#EAA22F;" d="M256,153.095c-0.384,0-0.765,0.012-1.148,0.014v149.966H405.98
	C405.98,220.243,338.832,153.095,256,153.095z"/>
<g>
</g>
<g>
</g>
<g>
</g>
<g>
</g>
<g>
</g>
<g>
</g>
<g>
</g>
<g>
</g>
<g>
</g>
<g>
</g>
<g>
</g>
<g>
</g>
<g>
</g>
<g>
</g>
<g>
</g>
</svg>
