<?xml version="1.0" encoding="iso-8859-1"?>
<!-- Generator: Adobe Illustrator 19.0.0, SVG Export Plug-In . SVG Version: 6.00 Build 0)  -->
<svg version="1.1" id="Layer_1" xmlns="http://www.w3.org/2000/svg" xmlns:xlink="http://www.w3.org/1999/xlink" x="0px" y="0px"
	 viewBox="0 0 512 512" style="enable-background:new 0 0 512 512;" xml:space="preserve">
<circle style="fill:#3A99D7;" cx="255.919" cy="255.998" r="255.919"/>
<path style="fill:#2682BF;" d="M511.528,241.343L392.077,121.893L121.499,391.682l119.766,119.766
	c4.886,0.315,9.77,0.473,14.814,0.473C397.435,511.921,512,397.356,512,256C512,251.114,511.843,246.229,511.528,241.343z"/>
<path style="fill:#056B78;" d="M128.749,117.48h254.345c6.266,0,11.346,5.08,11.346,11.346v254.345
	c0,6.266-5.08,11.346-11.346,11.346H128.749c-6.266,0-11.346-5.08-11.346-11.346V128.827
	C117.402,122.56,122.482,117.48,128.749,117.48z"/>
<rect x="124.488" y="158.458" style="fill:#EFEFF0;" width="262.851" height="228.971"/>
<g>
	<path style="fill:#FFFFFF;" d="M213.216,130.717h155.223c1.305,0,2.364,1.058,2.364,2.364v6.461c0,1.305-1.058,2.364-2.364,2.364
		H213.216c-1.305,0-2.364-1.058-2.364-2.364v-6.461C210.851,131.776,211.909,130.717,213.216,130.717z"/>
	<path style="fill:#FFFFFF;" d="M143.877,128.197c4.57,0,8.195,3.624,8.195,8.195c0,4.57-3.624,8.195-8.195,8.195
		c-4.57,0-8.195-3.624-8.195-8.195C135.683,131.821,139.307,128.197,143.877,128.197z M186.426,128.197
		c4.57,0,8.195,3.624,8.195,8.195c0,4.57-3.624,8.195-8.195,8.195c-4.57,0-8.195-3.624-8.195-8.195
		C178.231,131.821,181.855,128.197,186.426,128.197z M165.151,128.197c4.57,0,8.195,3.624,8.195,8.195
		c0,4.57-3.624,8.195-8.195,8.195c-4.57,0-8.195-3.624-8.195-8.195C156.956,131.821,160.582,128.197,165.151,128.197z"/>
</g>
<path style="fill:#E84F4F;" d="M332.824,270.024c-16.074,13.867-33.723,25.057-54.84,30.729c-22.85,6.146-44.282,1.734-64.768-8.668
	c-17.177-8.825-31.99-20.644-45.228-34.197c-0.315-0.315-0.473-0.788-0.945-1.418c19.383-19.698,40.815-35.93,68.393-43.81
	c17.649-5.043,34.985-3.467,51.846,2.837c23.48,8.668,42.391,23.48,59.725,41.131C342.28,261.2,337.709,265.77,332.824,270.024z"/>
<path style="fill:#FFFFFF;" d="M332.824,267.504c-16.074,11.346-33.723,20.486-54.84,25.057c-22.85,5.043-44.282,1.418-64.768-7.091
	c-17.177-7.249-31.99-16.862-45.228-28.051c-0.315-0.315-0.473-0.63-0.945-1.103c19.383-16.074,40.815-29.469,68.393-35.772
	c17.649-4.097,34.985-2.837,51.846,2.364c23.48,7.091,42.391,19.226,59.725,33.723C342.28,260.411,337.709,264.036,332.824,267.504z
	"/>
<path style="fill:#056B78;" d="M257.813,224.482c-20.959-0.473-33.251,16.704-33.093,32.148c0,17.965,14.34,32.305,32.305,32.305
	c17.649,0,31.99-14.498,31.99-32.148c0-17.334-13.552-31.833-31.36-32.148L257.813,224.482z"/>
<path style="fill:#FEFEFE;" d="M256.867,284.995c-15.601,0-28.523-12.922-28.523-28.523s12.922-28.523,28.523-28.523
	s28.523,12.765,28.523,28.366C285.548,272.231,272.783,284.995,256.867,284.995z"/>
<path style="fill:#056B78;" d="M252.612,234.567c5.516,6.304,5.673,12.922,0.473,17.177c-5.516,4.255-11.819,2.679-16.862-4.412
	c-4.57,10.085-1.418,21.59,7.406,27.893c8.983,6.304,20.959,5.673,28.839-1.891c8.036-7.406,9.613-19.383,3.939-28.681
	C271.365,236.458,260.491,231.73,252.612,234.567z"/>
<path style="fill:#FFFFFF;" d="M332.824,267.504c-16.074,11.346-33.723,20.486-54.84,25.057
	c-18.911,4.097-36.717,2.364-53.895-3.152l55.786-55.786l0.158,0.158l10.085-10.085c22.22,7.249,40.342,18.911,56.889,32.778
	c-4.727,3.782-9.298,7.406-14.182,10.873v0.157H332.824z"/>
<g>
	<path style="fill:#055661;" d="M234.174,279.322c5.831,5.831,13.867,9.455,22.85,9.455c17.649,0,31.99-14.498,31.99-32.148
		c0-8.825-3.467-17.019-9.298-22.85l-2.679,2.679c5.043,5.201,8.353,12.134,8.353,20.013c0.158,15.916-12.607,28.681-28.523,28.681
		c-7.721,0-14.814-3.152-20.013-8.353l-2.679,2.679L234.174,279.322L234.174,279.322z M273.098,240.398l-32.305,32.305
		c0.788,0.788,1.734,1.734,2.837,2.364c8.983,6.304,20.959,5.673,28.839-1.891c8.036-7.406,9.613-19.383,3.939-28.681
		C275.462,242.92,274.359,241.501,273.098,240.398z"/>
	<path style="fill:#055661;" d="M240.793,272.703c0.788,0.788,1.734,1.734,2.837,2.364c8.983,6.304,20.959,5.673,28.839-1.891
		c8.036-7.406,9.613-19.383,3.939-28.681c-0.945-1.575-2.049-2.994-3.309-4.097L240.793,272.703z"/>
</g>
<path style="fill:#FFFFFF;" d="M266.952,272.231c-2.994,0-5.516-2.679-5.516-5.673c0-2.994,2.679-5.673,5.673-5.516
	c2.994,0,5.516,2.679,5.516,5.673C272.625,269.709,269.946,272.388,266.952,272.231z"/>
<g>
</g>
<g>
</g>
<g>
</g>
<g>
</g>
<g>
</g>
<g>
</g>
<g>
</g>
<g>
</g>
<g>
</g>
<g>
</g>
<g>
</g>
<g>
</g>
<g>
</g>
<g>
</g>
<g>
</g>
</svg>
