<?xml version="1.0" encoding="iso-8859-1"?>
<!-- Generator: Adobe Illustrator 19.0.0, SVG Export Plug-In . SVG Version: 6.00 Build 0)  -->
<svg version="1.1" id="Capa_1" xmlns="http://www.w3.org/2000/svg" xmlns:xlink="http://www.w3.org/1999/xlink" x="0px" y="0px"
	 viewBox="0 0 512.047 512.047" style="enable-background:new 0 0 512.047 512.047;" xml:space="preserve">
<path style="fill:#ECEFF9;" d="M52.387,488.774h325.818c6.982,0,11.636-4.655,11.636-11.636V128.047h-69.818
	c-19.782,0-34.909-15.127-34.909-34.909V23.32H52.387c-6.982,0-11.636,4.655-11.636,11.636v442.182
	C40.751,484.12,45.405,488.774,52.387,488.774z"/>
<path style="fill:#014463;" d="M378.205,512.047H52.387c-19.782,0-34.909-15.127-34.909-34.909V34.956
	c0-19.782,15.127-34.909,34.909-34.909h244.364c6.982,0,11.636,4.655,11.636,11.636v81.455c0,6.982,4.655,11.636,11.636,11.636
	h81.455c6.982,0,11.636,4.655,11.636,11.636v360.727C413.115,496.92,397.987,512.047,378.205,512.047z M52.387,23.32
	c-6.982,0-11.636,4.655-11.636,11.636v442.182c0,6.982,4.655,11.636,11.636,11.636h325.818c6.982,0,11.636-4.655,11.636-11.636
	V128.047h-69.818c-19.782,0-34.909-15.127-34.909-34.909V23.32H52.387z"/>
<path style="fill:#70B7E5;" d="M320.024,104.774h53.527l-65.164-65.164v53.527C308.387,100.12,313.042,104.774,320.024,104.774z"/>
<g>
	<path style="fill:#014463;" d="M401.478,128.047h-81.455c-19.782,0-34.909-15.127-34.909-34.909V11.684
		c0-4.655,2.327-9.309,6.982-10.473c4.655-2.327,9.309-1.164,12.8,2.327l104.727,104.727c3.491,3.491,4.655,8.145,2.327,12.8
		C410.787,125.72,406.133,128.047,401.478,128.047z M308.387,39.611v53.527c0,6.982,4.655,11.636,11.636,11.636h53.527
		L308.387,39.611z"/>
	<path style="fill:#014463;" d="M238.569,384.047H87.296c-6.982,0-11.636-4.655-11.636-11.636s4.655-11.636,11.636-11.636h151.273
		c6.982,0,11.636,4.655,11.636,11.636S245.551,384.047,238.569,384.047z"/>
	<path style="fill:#014463;" d="M203.66,197.865H87.296c-6.982,0-11.636-4.655-11.636-11.636s4.655-11.636,11.636-11.636H203.66
		c6.982,0,11.636,4.655,11.636,11.636S210.642,197.865,203.66,197.865z"/>
	<path style="fill:#014463;" d="M261.842,244.411h-81.455c-6.982,0-11.636-4.655-11.636-11.636s4.655-11.636,11.636-11.636h81.455
		c6.982,0,11.636,4.655,11.636,11.636S268.824,244.411,261.842,244.411z"/>
	<path style="fill:#014463;" d="M296.751,197.865h-46.545c-6.982,0-11.636-4.655-11.636-11.636s4.655-11.636,11.636-11.636h46.545
		c6.982,0,11.636,4.655,11.636,11.636S303.733,197.865,296.751,197.865z"/>
	<path style="fill:#014463;" d="M192.024,290.956H87.296c-6.982,0-11.636-4.655-11.636-11.636s4.655-11.636,11.636-11.636h104.727
		c6.982,0,11.636,4.655,11.636,11.636S199.005,290.956,192.024,290.956z"/>
	<path style="fill:#014463;" d="M133.842,337.502H87.296c-6.982,0-11.636-4.655-11.636-11.636c0-6.982,4.655-11.636,11.636-11.636
		h46.545c6.982,0,11.636,4.655,11.636,11.636C145.478,332.847,140.824,337.502,133.842,337.502z"/>
	<path style="fill:#014463;" d="M133.842,244.411H87.296c-6.982,0-11.636-4.655-11.636-11.636s4.655-11.636,11.636-11.636h46.545
		c6.982,0,11.636,4.655,11.636,11.636S140.824,244.411,133.842,244.411z"/>
	<path style="fill:#014463;" d="M261.842,290.956h-23.273c-6.982,0-11.636-4.655-11.636-11.636s4.655-11.636,11.636-11.636h23.273
		c6.982,0,11.636,4.655,11.636,11.636S268.824,290.956,261.842,290.956z"/>
	<path style="fill:#014463;" d="M226.933,337.502h-46.545c-6.982,0-11.636-4.655-11.636-11.636c0-6.982,4.655-11.636,11.636-11.636
		h46.545c6.982,0,11.636,4.655,11.636,11.636C238.569,332.847,233.914,337.502,226.933,337.502z"/>
</g>
<polygon style="fill:#CEDAE6;" points="389.842,128.047 320.024,128.047 389.842,197.865 "/>
<path style="fill:#F04D4E;" d="M459.66,190.884c-3.491-3.491-6.982-4.655-11.636-4.655l0,0c-4.655,0-8.145,1.164-11.636,4.655
	l-6.982,6.982l30.255,30.255l6.982-6.982c3.491-3.491,4.655-6.982,4.655-11.636s-1.164-8.145-4.655-11.636L459.66,190.884z"/>
<path style="fill:#DD353F;" d="M459.66,228.12l6.982-6.982l0,0c3.491-3.491,4.655-6.982,4.655-11.636s-1.164-8.145-4.655-11.636l0,0
	l-18.618,18.618L459.66,228.12z"/>
<rect x="307.796" y="258.612" transform="matrix(-0.7071 0.7071 -0.7071 -0.7071 843.708 210.802)" style="fill:#FFCA5D;" width="140.799" height="43.054"/>
<polygon style="fill:#EFC9AE;" points="320.024,353.793 303.733,337.502 300.242,357.284 "/>
<path style="fill:#014463;" d="M482.933,181.574l-6.982-6.982c-6.982-6.982-17.455-11.636-27.927-11.636l0,0
	c-10.473,0-20.945,4.655-27.927,11.636L288.605,306.084c-1.164,1.164-2.327,3.491-3.491,5.818l0,0l-11.636,58.182
	c-1.164,3.491,0,8.145,3.491,10.473c2.327,2.327,4.655,3.491,8.145,3.491c1.164,0,1.164,0,2.327,0l58.182-11.636l0,0
	c2.327,0,4.655-1.164,5.818-3.491l131.491-131.491c6.982-6.982,11.636-17.455,11.636-27.927
	C494.569,199.029,489.914,188.556,482.933,181.574z M300.242,357.284l3.491-19.782l16.291,16.291L300.242,357.284z M343.296,344.484
	l-30.255-30.255l100.073-100.073l30.255,30.255L343.296,344.484z M466.642,221.138l-6.982,6.982l-30.255-30.255l6.982-6.982
	c3.491-3.491,6.982-4.655,11.636-4.655l0,0c4.655,0,8.145,1.164,11.636,4.655l6.982,6.982c3.491,3.491,4.655,6.982,4.655,11.636
	S468.969,217.647,466.642,221.138z"/>
<path style="fill:#CEDAE6;" d="M351.442,368.92c-1.164,1.164-3.491,2.327-5.818,3.491l-58.182,11.636c-1.164,0-1.164,0-2.327,0
	h104.727V330.52L351.442,368.92z"/>
<rect x="316.733" y="280.809" transform="matrix(-0.7071 0.7071 -0.7071 -0.7071 865.1981 219.5329)" style="fill:#F5B445;" width="140.799" height="16.291"/>
<g>
</g>
<g>
</g>
<g>
</g>
<g>
</g>
<g>
</g>
<g>
</g>
<g>
</g>
<g>
</g>
<g>
</g>
<g>
</g>
<g>
</g>
<g>
</g>
<g>
</g>
<g>
</g>
<g>
</g>
</svg>
